# xmcd
#
# Track frame offsets:
# 150
# 24603
# 45039
# 65287
# 96043
# 120514
# 150201
# 169597
# 198006
# 223063
# 246256
# 261725
#
# Disc length: 3710 seconds
#
#
# Revision: 0
# Processed by: cddbd v1.5.2PL0 Copyright (c) Steve Scherf et al.
# Submitted via: Nero 7, 11, 10, 0 
#
DISCID=950e7c0c
DTITLE=Steve Kozak's Westcoast Blues Revue - Steve Kozak's Westcoast Blues Revue
DYEAR=2003
DGENRE=Blues
TTITLE0=I Don't Care Who Knows
TTITLE1=Is It Yes?
TTITLE2=Snakes
TTITLE3=Love, Life And Money
TTITLE4=Icepick's Confession
TTITLE5=Tribute To William Clarke and George Smith
TTITLE6=Automatic
TTITLE7=Cold Hand In Mine
TTITLE8=If The Shoe Fits (Wear It)
TTITLE9=I'm The One
TTITLE10=Bluto's Back
TTITLE11=Leavin' Time
EXTD=
EXTT0=I Don't Care Who Knows
EXTT1=Is It Yes?
EXTT2=Snakes
EXTT3=Love, Life And Money
EXTT4=Icepick's Confession
EXTT5=Tribute To William Clarke and George Smith
EXTT6=Automatic
EXTT7=Cold Hand In Mine
EXTT8=If The Shoe Fits (Wear It)
EXTT9=I'm The One
EXTT10=Bluto's Back
EXTT11=Leavin' Time
PLAYORDER=
